<?xml version="1.0" standalone="no"?>
<!DOCTYPE svg PUBLIC "-//W3C//DTD SVG 20010904//EN"
 "http://www.w3.org/TR/2001/REC-SVG-20010904/DTD/svg10.dtd">
<svg version="1.0" xmlns="http://www.w3.org/2000/svg"
 width="512.000000pt" height="512.000000pt" viewBox="0 0 512.000000 512.000000"
 preserveAspectRatio="xMidYMid meet">
<metadata>
Created by potrace 1.14, written by Peter Selinger 2001-2017
</metadata>
<g transform="translate(0.000000,512.000000) scale(0.100000,-0.100000)"
fill="#000000" stroke="none">
<path d="M0 2560 l0 -2560 2560 0 2560 0 0 2560 0 2560 -2560 0 -2560 0 0
-2560z m3368 23 l2 -553 -140 0 -140 0 0 30 c0 36 -3 37 -43 6 -89 -66 -244
-70 -374 -10 -70 33 -155 126 -183 201 -34 88 -39 221 -12 310 38 123 101 196
219 250 50 24 71 28 153 28 104 0 154 -13 200 -52 l30 -25 0 179 c0 99 3 183
7 187 4 3 68 5 142 4 l136 -3 3 -552z m-2188 332 l0 -104 93 -3 92 -3 3 -107
3 -108 -96 0 -96 0 3 -155 c3 -144 4 -156 25 -177 24 -23 75 -29 124 -14 25 7
27 5 57 -79 18 -48 32 -93 32 -100 0 -25 -99 -50 -195 -49 -151 0 -246 49
-297 152 -21 43 -23 62 -26 235 l-4 187 -59 0 -59 0 0 110 0 110 60 0 60 0 0
105 0 105 140 0 140 0 0 -105z m915 -96 c119 -44 186 -103 238 -208 30 -62 32
-71 32 -181 0 -110 -1 -118 -33 -182 -80 -164 -276 -257 -481 -230 -250 34
-404 210 -388 446 12 182 135 323 325 371 82 21 230 13 307 -16z m1984 16
c138 -33 257 -129 303 -245 18 -44 22 -76 23 -160 0 -98 -2 -110 -32 -173 -20
-41 -52 -87 -82 -116 -192 -187 -554 -165 -713 44 -87 113 -104 298 -40 427
89 182 317 275 541 223z"/>
<path d="M2830 2598 c-58 -40 -74 -71 -78 -151 -3 -60 1 -79 20 -116 32 -62
66 -84 135 -89 48 -3 64 0 92 20 48 33 72 68 82 124 16 87 -15 176 -74 213
-48 30 -132 29 -177 -1z"/>
<path d="M1830 2598 c-60 -41 -75 -71 -78 -156 -2 -65 1 -83 20 -116 34 -58
68 -79 135 -84 49 -3 64 0 93 20 48 32 77 79 85 137 7 52 -7 119 -32 157 -42
65 -157 86 -223 42z"/>
<path d="M3872 2603 c-100 -49 -116 -243 -27 -322 76 -66 186 -51 249 33 18
23 21 42 21 116 0 98 -12 124 -75 168 -40 27 -119 30 -168 5z"/>
</g>
</svg>
